<svg width="194" height="29" viewBox="0 0 194 29" fill="none" xmlns="http://www.w3.org/2000/svg">
<path d="M7.23082 14.3799L3.90044 17.8023V23.176H0V2.16149H3.90044V12.9389L14.2816 2.16149H18.6621L9.84111 11.558L19.2022 23.176H14.6417L7.23082 14.3799Z" fill="#4C4C4C"/>
<path d="M27.2377 6.9648C29.5979 6.9648 31.3981 7.5352 32.6383 8.67598C33.8984 9.79676 34.5285 11.4979 34.5285 13.7795V23.176H30.9881V21.2246C30.5281 21.9251 29.868 22.4655 29.0079 22.8458C28.1678 23.206 27.1477 23.3861 25.9475 23.3861C24.7474 23.3861 23.6973 23.186 22.7972 22.7857C21.8971 22.3654 21.197 21.795 20.6969 21.0745C20.2169 20.334 19.9769 19.5035 19.9769 18.5828C19.9769 17.1418 20.5069 15.991 21.567 15.1304C22.6472 14.2498 24.3374 13.8095 26.6376 13.8095H30.7781V13.5694C30.7781 12.4486 30.438 11.588 29.758 10.9876C29.0979 10.3872 28.1078 10.087 26.7876 10.087C25.8875 10.087 24.9974 10.2271 24.1173 10.5072C23.2572 10.7874 22.5272 11.1777 21.9271 11.6781L20.4569 8.94617C21.297 8.30573 22.3071 7.81539 23.4873 7.47516C24.6674 7.13492 25.9175 6.9648 27.2377 6.9648ZM26.7276 20.6542C27.6677 20.6542 28.4978 20.4441 29.2179 20.0238C29.958 19.5835 30.478 18.9631 30.7781 18.1625V16.3012H26.9076C24.7474 16.3012 23.6673 17.0117 23.6673 18.4327C23.6673 19.1132 23.9373 19.6536 24.4774 20.0538C25.0174 20.4541 25.7675 20.6542 26.7276 20.6542Z" fill="#4C4C4C"/>
<path d="M48.2227 6.9648C49.7829 6.9648 51.173 7.30504 52.3932 7.98551C53.6333 8.66598 54.6034 9.62664 55.3035 10.8675C56.0036 12.1083 56.3536 13.5393 56.3536 15.1605C56.3536 16.7816 56.0036 18.2226 55.3035 19.4834C54.6034 20.7243 53.6333 21.685 52.3932 22.3654C51.173 23.0459 49.7829 23.3861 48.2227 23.3861C46.0625 23.3861 44.3523 22.6656 43.0921 21.2246V29H39.3417V7.14493H42.9121V9.24638C43.5322 8.48585 44.2923 7.91546 45.1924 7.5352C46.1125 7.15493 47.1226 6.9648 48.2227 6.9648ZM47.8027 20.1739C49.1828 20.1739 50.3129 19.7136 51.193 18.793C52.0931 17.8723 52.5432 16.6615 52.5432 15.1605C52.5432 13.6594 52.0931 12.4486 51.193 11.528C50.3129 10.6073 49.1828 10.147 47.8027 10.147C46.9026 10.147 46.0925 10.3571 45.3724 10.7774C44.6523 11.1777 44.0822 11.7581 43.6622 12.5186C43.2421 13.2792 43.0321 14.1598 43.0321 15.1605C43.0321 16.1611 43.2421 17.0418 43.6622 17.8023C44.0822 18.5628 44.6523 19.1532 45.3724 19.5735C46.0925 19.9738 46.9026 20.1739 47.8027 20.1739Z" fill="#4C4C4C"/>
<path d="M59.9104 7.14493H63.6609V23.176H59.9104V7.14493ZM61.8006 4.5031C61.1206 4.5031 60.5505 4.29296 60.0904 3.87267C59.6304 3.43237 59.4004 2.89199 59.4004 2.25155C59.4004 1.61111 59.6304 1.08074 60.0904 0.660454C60.5505 0.220151 61.1206 0 61.8006 0C62.4807 0 63.0508 0.210145 63.5108 0.630434C63.9709 1.03071 64.2009 1.54106 64.2009 2.16149C64.2009 2.82194 63.9709 3.38233 63.5108 3.84265C63.0708 4.28295 62.5007 4.5031 61.8006 4.5031Z" fill="#4C4C4C"/>
<path d="M77.4643 6.9648C79.0245 6.9648 80.4146 7.30504 81.6348 7.98551C82.8749 8.66598 83.845 9.62664 84.5451 10.8675C85.2452 12.1083 85.5952 13.5393 85.5952 15.1605C85.5952 16.7816 85.2452 18.2226 84.5451 19.4834C83.845 20.7243 82.8749 21.685 81.6348 22.3654C80.4146 23.0459 79.0245 23.3861 77.4643 23.3861C76.3642 23.3861 75.354 23.196 74.4339 22.8157C73.5338 22.4355 72.7738 21.8651 72.1537 21.1046V23.176H68.5833V0.90062H72.3337V9.09627C72.9738 8.39579 73.7239 7.86542 74.584 7.50518C75.4641 7.14493 76.4242 6.9648 77.4643 6.9648ZM77.0442 20.1739C78.4244 20.1739 79.5545 19.7136 80.4346 18.793C81.3347 17.8723 81.7848 16.6615 81.7848 15.1605C81.7848 13.6594 81.3347 12.4486 80.4346 11.528C79.5545 10.6073 78.4244 10.147 77.0442 10.147C76.1441 10.147 75.334 10.3571 74.614 10.7774C73.8939 11.1777 73.3238 11.7581 72.9038 12.5186C72.4837 13.2792 72.2737 14.1598 72.2737 15.1605C72.2737 16.1611 72.4837 17.0418 72.9038 17.8023C73.3238 18.5628 73.8939 19.1532 74.614 19.5735C75.334 19.9738 76.1441 20.1739 77.0442 20.1739Z" fill="#4C4C4C"/>
<path d="M95.0676 6.9648C97.4279 6.9648 99.2281 7.5352 100.468 8.67598C101.728 9.79676 102.358 11.4979 102.358 13.7795V23.176H98.818V21.2246C98.358 21.9251 97.6979 22.4655 96.8378 22.8458C95.9977 23.206 94.9776 23.3861 93.7775 23.3861C92.5773 23.3861 91.5272 23.186 90.6271 22.7857C89.727 22.3654 89.0269 21.795 88.5269 21.0745C88.0468 20.334 87.8068 19.5035 87.8068 18.5828C87.8068 17.1418 88.3368 15.991 89.3969 15.1304C90.4771 14.2498 92.1673 13.8095 94.4675 13.8095H98.608V13.5694C98.608 12.4486 98.268 11.588 97.5879 10.9876C96.9278 10.3872 95.9377 10.087 94.6175 10.087C93.7174 10.087 92.8273 10.2271 91.9472 10.5072C91.0871 10.7874 90.3571 11.1777 89.757 11.6781L88.2868 8.94617C89.1269 8.30573 90.137 7.81539 91.3172 7.47516C92.4973 7.13492 93.7475 6.9648 95.0676 6.9648ZM94.5575 20.6542C95.4976 20.6542 96.3277 20.4441 97.0478 20.0238C97.7879 19.5835 98.308 18.9631 98.608 18.1625V16.3012H94.7376C92.5773 16.3012 91.4972 17.0117 91.4972 18.4327C91.4972 19.1132 91.7672 19.6536 92.3073 20.0538C92.8473 20.4541 93.5974 20.6542 94.5575 20.6542Z" fill="#4C4C4C"/>
<path d="M110.742 9.48654C111.822 7.80538 113.722 6.9648 116.443 6.9648V10.5373C116.123 10.4772 115.833 10.4472 115.573 10.4472C114.112 10.4472 112.972 10.8775 112.152 11.7381C111.332 12.5787 110.922 13.7995 110.922 15.4006V23.176H107.172V7.14493H110.742V9.48654Z" fill="#4C4C4C"/>
<path d="M125.657 6.9648C128.017 6.9648 129.817 7.5352 131.058 8.67598C132.318 9.79676 132.948 11.4979 132.948 13.7795V23.176H129.407V21.2246C128.947 21.9251 128.287 22.4655 127.427 22.8458C126.587 23.206 125.567 23.3861 124.367 23.3861C123.167 23.3861 122.117 23.186 121.216 22.7857C120.316 22.3654 119.616 21.795 119.116 21.0745C118.636 20.334 118.396 19.5035 118.396 18.5828C118.396 17.1418 118.926 15.991 119.986 15.1304C121.066 14.2498 122.757 13.8095 125.057 13.8095H129.197V13.5694C129.197 12.4486 128.857 11.588 128.177 10.9876C127.517 10.3872 126.527 10.087 125.207 10.087C124.307 10.087 123.417 10.2271 122.537 10.5072C121.677 10.7874 120.946 11.1777 120.346 11.6781L118.876 8.94617C119.716 8.30573 120.726 7.81539 121.907 7.47516C123.087 7.13492 124.337 6.9648 125.657 6.9648ZM125.147 20.6542C126.087 20.6542 126.917 20.4441 127.637 20.0238C128.377 19.5835 128.897 18.9631 129.197 18.1625V16.3012H125.327C123.167 16.3012 122.087 17.0117 122.087 18.4327C122.087 19.1132 122.357 19.6536 122.897 20.0538C123.437 20.4541 124.187 20.6542 125.147 20.6542Z" fill="#4C4C4C"/>
<path d="M141.016 2.16149H144.916V19.8737H155.898V23.176H141.016V2.16149Z" fill="#737BE1"/>
<path d="M164.884 6.9648C167.244 6.9648 169.045 7.5352 170.285 8.67598C171.545 9.79676 172.175 11.4979 172.175 13.7795V23.176H168.634V21.2246C168.174 21.9251 167.514 22.4655 166.654 22.8458C165.814 23.206 164.794 23.3861 163.594 23.3861C162.394 23.3861 161.344 23.186 160.444 22.7857C159.543 22.3654 158.843 21.795 158.343 21.0745C157.863 20.334 157.623 19.5035 157.623 18.5828C157.623 17.1418 158.153 15.991 159.213 15.1304C160.294 14.2498 161.984 13.8095 164.284 13.8095H168.424V13.5694C168.424 12.4486 168.084 11.588 167.404 10.9876C166.744 10.3872 165.754 10.087 164.434 10.087C163.534 10.087 162.644 10.2271 161.764 10.5072C160.904 10.7874 160.174 11.1777 159.573 11.6781L158.103 8.94617C158.943 8.30573 159.954 7.81539 161.134 7.47516C162.314 7.13492 163.564 6.9648 164.884 6.9648ZM164.374 20.6542C165.314 20.6542 166.144 20.4441 166.864 20.0238C167.604 19.5835 168.124 18.9631 168.424 18.1625V16.3012H164.554C162.394 16.3012 161.314 17.0117 161.314 18.4327C161.314 19.1132 161.584 19.6536 162.124 20.0538C162.664 20.4541 163.414 20.6542 164.374 20.6542Z" fill="#737BE1"/>
<path d="M185.869 6.9648C187.429 6.9648 188.819 7.30504 190.04 7.98551C191.28 8.66598 192.25 9.62664 192.95 10.8675C193.65 12.1083 194 13.5393 194 15.1605C194 16.7816 193.65 18.2226 192.95 19.4834C192.25 20.7243 191.28 21.685 190.04 22.3654C188.819 23.0459 187.429 23.3861 185.869 23.3861C184.769 23.3861 183.759 23.196 182.839 22.8157C181.939 22.4355 181.179 21.8651 180.558 21.1046V23.176H176.988V0.90062H180.739V9.09627C181.379 8.39579 182.129 7.86542 182.989 7.50518C183.869 7.14493 184.829 6.9648 185.869 6.9648ZM185.449 20.1739C186.829 20.1739 187.959 19.7136 188.839 18.793C189.74 17.8723 190.19 16.6615 190.19 15.1605C190.19 13.6594 189.74 12.4486 188.839 11.528C187.959 10.6073 186.829 10.147 185.449 10.147C184.549 10.147 183.739 10.3571 183.019 10.7774C182.299 11.1777 181.729 11.7581 181.309 12.5186C180.889 13.2792 180.678 14.1598 180.678 15.1605C180.678 16.1611 180.889 17.0418 181.309 17.8023C181.729 18.5628 182.299 19.1532 183.019 19.5735C183.739 19.9738 184.549 20.1739 185.449 20.1739Z" fill="#737BE1"/>
<path d="M80.189 15.1705C80.189 16.8285 78.8457 18.1725 77.1887 18.1725C75.5317 18.1725 74.1884 16.8285 74.1884 15.1705C74.1884 13.5125 75.5317 12.1684 77.1887 12.1684C78.8457 12.1684 80.189 13.5125 80.189 15.1705Z" fill="#737BE1"/>
</svg>
